<svg width="114" height="80" viewBox="0 0 114 80" fill="none" xmlns="http://www.w3.org/2000/svg">
<mask id="mask0_22694_8067" style="mask-type:alpha" maskUnits="userSpaceOnUse" x="0" y="0" width="114" height="80">
<rect width="114" height="80" fill="#D9D9D9"/>
</mask>
<g mask="url(#mask0_22694_8067)">
<path opacity="0.1" d="M105.131 0C117.554 0 126.463 7.13929 126.463 21.1762C126.463 27.9017 124.463 32.6774 120.721 37.0489C120.274 37.5703 117.512 40.514 117.113 41.0822C116.887 41.4044 116.847 41.5095 116.847 41.5204L116.849 42.6594L116.85 43.0088L134.083 43.01C137.159 43.01 139.686 45.3316 139.973 48.2999L140 48.8636V64.3902C140 66.5455 138.234 68.2927 136.056 68.2927H72.9444C70.7651 68.2927 68.9987 66.5441 69 64.388L69.0091 48.8572C69.0144 45.629 71.6596 43.0135 74.9269 43.01L92.5047 43.0088L92.5123 42.682C92.5135 42.5233 92.5145 42.3527 92.5151 42.1694L92.5126 41.8341C92.4174 41.7105 92.2381 41.4812 91.9408 41.1404L91.816 41.0007C91.7717 40.9662 89.3149 38.3034 88.5656 37.3911C84.8776 32.9003 82.849 27.8945 82.849 21.1762C82.849 7.17794 92.4491 0 105.131 0ZM105.131 7.80488C96.4016 7.80488 90.7378 12.0396 90.7378 21.1762C90.7378 25.9799 92.0812 29.2949 94.6882 32.4694C95.1053 32.9773 95.5446 33.4731 96.1181 34.0918C96.0694 34.0393 97.2605 35.3123 97.5771 35.6628C98.984 37.2201 99.7752 38.3675 100.184 39.8816C100.329 40.4164 100.405 40.9638 100.405 41.5204L100.404 42.2845C100.397 44.7148 100.343 45.524 100.053 46.6318C99.3835 49.1917 97.3863 50.8148 94.6527 50.8148L76.8967 50.8137L76.8888 60.4878H132.111V50.8137L114.442 50.8148C112.139 50.8148 110.252 49.8219 109.443 47.5616L109.275 47.0174C109.023 46.049 108.97 45.3961 108.96 42.9202L108.958 41.5204C108.958 39.7359 109.56 38.1599 110.633 36.6308C111.409 35.5252 114.576 32.1504 114.701 32.0046C117.302 28.9663 118.575 25.9279 118.575 21.1762C118.575 11.855 113.52 7.80488 105.131 7.80488ZM136.055 72.1951C138.233 72.1951 139.999 73.9423 139.999 76.0976C139.999 78.2528 138.233 80 136.055 80H72.9444C70.766 80 69 78.2528 69 76.0976C69 73.9423 70.766 72.1951 72.9444 72.1951H136.055Z" fill="#002887"/>
</g>
</svg>
